HIERARCHY
ROOT Hips
{
    OFFSET 0.0 0.0 0.0
    CHANNELS 6 Xposition Yposition Zposition Xrotation Yrotation Zrotation
    JOINT Chest
    {
        OFFSET 0.0 15.0 0.0
        CHANNELS 3 Xrotation Yrotation Zrotation
        End Site
        {
            OFFSET 0.0 10.0 0.0
        }
    }
}
MOTION
Frames: 2
Frame Time: 0.0333333
0.0 0.0 0.0 0.0 0.0 0.0 0.0 0.0 0.0
1.0 2.0 3.0 10.0 20.0 30.0 5.0 15.0 25.0
